<mxfile host="app.diagrams.net" agent="Mozilla/5.0 (Windows NT 10.0; Win64; x64) AppleWebKit/537.36 (KHTML, like Gecko) Chrome/131.0.0.0 Safari/537.36" version="26.0.13">
  <diagram name="Page-1" id="3sVtJm6oXftKx7DLWwAz">
    <mxGraphModel dx="2800" dy="1085" grid="1" gridSize="10" guides="1" tooltips="1" connect="1" arrows="1" fold="1" page="1" pageScale="1" pageWidth="850" pageHeight="1100" math="0" shadow="0">
      <root>
        <mxCell id="0" />
        <mxCell id="1" parent="0" />
        <mxCell id="BQiQh-RhGL-g9x0WjfYp-20" style="edgeStyle=orthogonalEdgeStyle;rounded=0;orthogonalLoop=1;jettySize=auto;html=1;" parent="1" source="BQiQh-RhGL-g9x0WjfYp-1" target="BQiQh-RhGL-g9x0WjfYp-4" edge="1">
          <mxGeometry relative="1" as="geometry" />
        </mxCell>
        <mxCell id="BQiQh-RhGL-g9x0WjfYp-1" value="start" style="ellipse;whiteSpace=wrap;html=1;" parent="1" vertex="1">
          <mxGeometry x="360" y="100" width="80" height="40" as="geometry" />
        </mxCell>
        <mxCell id="BQiQh-RhGL-g9x0WjfYp-11" style="edgeStyle=orthogonalEdgeStyle;rounded=0;orthogonalLoop=1;jettySize=auto;html=1;" parent="1" source="BQiQh-RhGL-g9x0WjfYp-3" target="BQiQh-RhGL-g9x0WjfYp-8" edge="1">
          <mxGeometry relative="1" as="geometry">
            <Array as="points">
              <mxPoint x="520" y="530" />
              <mxPoint x="400" y="530" />
            </Array>
          </mxGeometry>
        </mxCell>
        <mxCell id="BQiQh-RhGL-g9x0WjfYp-3" value="bill = $5" style="rounded=0;whiteSpace=wrap;html=1;" parent="1" vertex="1">
          <mxGeometry x="460" y="400" width="120" height="60" as="geometry" />
        </mxCell>
        <mxCell id="BQiQh-RhGL-g9x0WjfYp-21" style="edgeStyle=orthogonalEdgeStyle;rounded=0;orthogonalLoop=1;jettySize=auto;html=1;" parent="1" source="BQiQh-RhGL-g9x0WjfYp-4" target="BQiQh-RhGL-g9x0WjfYp-5" edge="1">
          <mxGeometry relative="1" as="geometry" />
        </mxCell>
        <mxCell id="BQiQh-RhGL-g9x0WjfYp-4" value="input&lt;div&gt;mouthlyMessages&amp;nbsp;&lt;/div&gt;" style="shape=parallelogram;perimeter=parallelogramPerimeter;whiteSpace=wrap;html=1;fixedSize=1;" parent="1" vertex="1">
          <mxGeometry x="330" y="170" width="140" height="80" as="geometry" />
        </mxCell>
        <mxCell id="BQiQh-RhGL-g9x0WjfYp-6" style="edgeStyle=orthogonalEdgeStyle;rounded=0;orthogonalLoop=1;jettySize=auto;html=1;" parent="1" source="BQiQh-RhGL-g9x0WjfYp-5" target="BQiQh-RhGL-g9x0WjfYp-3" edge="1">
          <mxGeometry relative="1" as="geometry" />
        </mxCell>
        <mxCell id="BQiQh-RhGL-g9x0WjfYp-7" value="yes" style="edgeLabel;html=1;align=center;verticalAlign=middle;resizable=0;points=[];" parent="BQiQh-RhGL-g9x0WjfYp-6" vertex="1" connectable="0">
          <mxGeometry x="-0.3111" relative="1" as="geometry">
            <mxPoint as="offset" />
          </mxGeometry>
        </mxCell>
        <mxCell id="BQiQh-RhGL-g9x0WjfYp-9" style="edgeStyle=orthogonalEdgeStyle;rounded=0;orthogonalLoop=1;jettySize=auto;html=1;entryX=0.5;entryY=0;entryDx=0;entryDy=0;" parent="1" source="BQiQh-RhGL-g9x0WjfYp-5" target="BQiQh-RhGL-g9x0WjfYp-8" edge="1">
          <mxGeometry relative="1" as="geometry">
            <Array as="points">
              <mxPoint x="290" y="330" />
              <mxPoint x="290" y="530" />
              <mxPoint x="400" y="530" />
            </Array>
          </mxGeometry>
        </mxCell>
        <mxCell id="BQiQh-RhGL-g9x0WjfYp-12" value="no" style="edgeLabel;html=1;align=center;verticalAlign=middle;resizable=0;points=[];" parent="BQiQh-RhGL-g9x0WjfYp-9" vertex="1" connectable="0">
          <mxGeometry x="-0.8359" y="-1" relative="1" as="geometry">
            <mxPoint as="offset" />
          </mxGeometry>
        </mxCell>
        <mxCell id="BQiQh-RhGL-g9x0WjfYp-5" value="is number of messages &amp;lt;= 100?" style="rhombus;whiteSpace=wrap;html=1;" parent="1" vertex="1">
          <mxGeometry x="350" y="280" width="100" height="100" as="geometry" />
        </mxCell>
        <mxCell id="BQiQh-RhGL-g9x0WjfYp-15" style="edgeStyle=orthogonalEdgeStyle;rounded=0;orthogonalLoop=1;jettySize=auto;html=1;entryX=0.5;entryY=0;entryDx=0;entryDy=0;" parent="1" source="BQiQh-RhGL-g9x0WjfYp-8" target="BQiQh-RhGL-g9x0WjfYp-14" edge="1">
          <mxGeometry relative="1" as="geometry" />
        </mxCell>
        <mxCell id="BQiQh-RhGL-g9x0WjfYp-8" value="calculate additional charges&lt;div&gt;calculatedCharges =(monthlyMessages - 300) * 0.02 + (200 * 0.03) + 5&lt;/div&gt;" style="rounded=0;whiteSpace=wrap;html=1;" parent="1" vertex="1">
          <mxGeometry x="320" y="550" width="160" height="100" as="geometry" />
        </mxCell>
        <mxCell id="BQiQh-RhGL-g9x0WjfYp-17" style="edgeStyle=orthogonalEdgeStyle;rounded=0;orthogonalLoop=1;jettySize=auto;html=1;entryX=0.5;entryY=0;entryDx=0;entryDy=0;" parent="1" source="BQiQh-RhGL-g9x0WjfYp-14" target="BQiQh-RhGL-g9x0WjfYp-16" edge="1">
          <mxGeometry relative="1" as="geometry" />
        </mxCell>
        <mxCell id="BQiQh-RhGL-g9x0WjfYp-14" value="calculate total bill&lt;div&gt;totalBill = (calculatedCharges) * 1.14&lt;/div&gt;" style="rounded=0;whiteSpace=wrap;html=1;" parent="1" vertex="1">
          <mxGeometry x="325" y="710" width="150" height="100" as="geometry" />
        </mxCell>
        <mxCell id="BQiQh-RhGL-g9x0WjfYp-19" style="edgeStyle=orthogonalEdgeStyle;rounded=0;orthogonalLoop=1;jettySize=auto;html=1;entryX=0.5;entryY=0;entryDx=0;entryDy=0;" parent="1" source="BQiQh-RhGL-g9x0WjfYp-16" target="BQiQh-RhGL-g9x0WjfYp-18" edge="1">
          <mxGeometry relative="1" as="geometry" />
        </mxCell>
        <mxCell id="BQiQh-RhGL-g9x0WjfYp-16" value="print&lt;div&gt;&quot;Your total bill for this mounth is &quot; + totalBill&lt;/div&gt;" style="rounded=0;whiteSpace=wrap;html=1;" parent="1" vertex="1">
          <mxGeometry x="325" y="850" width="150" height="90" as="geometry" />
        </mxCell>
        <mxCell id="BQiQh-RhGL-g9x0WjfYp-18" value="stop" style="ellipse;whiteSpace=wrap;html=1;" parent="1" vertex="1">
          <mxGeometry x="357.5" y="980" width="85" height="50" as="geometry" />
        </mxCell>
      </root>
    </mxGraphModel>
  </diagram>
</mxfile>
